<?xml version="1.0" encoding="utf-8"?>
<!-- Generator: Adobe Illustrator 15.0.0, SVG Export Plug-In . SVG Version: 6.00 Build 0)  -->
<!DOCTYPE svg PUBLIC "-//W3C//DTD SVG 1.1//EN" "http://www.w3.org/Graphics/SVG/1.1/DTD/svg11.dtd">
<svg version="1.1" id="Calque_1" xmlns="http://www.w3.org/2000/svg" xmlns:xlink="http://www.w3.org/1999/xlink" x="0px" y="0px"
	 width="219.984px" height="39.438px" viewBox="0 0 219.984 39.438" enable-background="new 0 0 219.984 39.438"
	 xml:space="preserve">
<g>
	<g>
		<path fill="#D4D4D4" d="M31.365,25.355"/>
		<path fill="#D4D4D4" d="M31.365,35.244"/>
		<path fill="#D4D4D4" d="M31.365,35.244c0,0-9.644-19.063-30.602-8.833c8.554-11.315,9.615-12.729,9.615-12.729
			S28.837,9.68,31.365,25.355"/>
	</g>
	<g>
		<path fill="#D4D4D4" d="M31.389,25.355"/>
		<path fill="#D4D4D4" d="M31.389,35.244"/>
		<path fill="#D4D4D4" d="M31.389,35.244c0,0,9.644-19.063,30.6-8.833c-8.253-10.711-9.613-12.729-9.613-12.729
			S33.916,9.68,31.389,25.355"/>
	</g>
	<path fill="#44443D" d="M73.215,31.395V10h7.945c3.803,0,6.355,1.476,6.355,5.562c0,1.93-0.624,3.489-2.354,4.369v0.056
		c3.063,0.397,4.368,2.47,4.368,5.448c0,4.484-3.829,5.958-7.744,5.958h-8.571V31.395z M78.777,18.399h0.625
		c1.476,0,3.009-0.255,3.009-2.07c0-1.958-1.73-2.071-3.235-2.071h-0.397L78.777,18.399L78.777,18.399z M78.777,27.139h0.709
		c1.646,0,4.427,0.086,4.427-2.271c0-2.581-2.753-2.325-4.569-2.325h-0.567L78.777,27.139L78.777,27.139z"/>
	<path fill="#44443D" d="M108.769,24.13c0,4.938-4.087,7.747-8.769,7.747c-4.652,0-8.768-2.781-8.768-7.747s4.086-7.774,8.768-7.774
		S108.769,19.165,108.769,24.13z M96.682,24.13c0,1.845,1.22,3.264,3.318,3.264c2.101,0,3.32-1.419,3.32-3.264
		c0-1.788-1.221-3.291-3.32-3.291C97.902,20.839,96.682,22.342,96.682,24.13z"/>
	<path fill="#44443D" d="M127.552,24.13c0,4.938-4.086,7.747-8.768,7.747c-4.653,0-8.769-2.781-8.769-7.747s4.086-7.774,8.769-7.774
		C123.466,16.356,127.552,19.165,127.552,24.13z M115.465,24.13c0,1.845,1.221,3.264,3.319,3.264c2.101,0,3.319-1.419,3.319-3.264
		c0-1.788-1.22-3.291-3.319-3.291C116.686,20.839,115.465,22.342,115.465,24.13z"/>
	<path fill="#C6A25B" d="M155.425,25.18c0.028,2.271,1.561,4.398,4,4.398c1.958,0,3.009-0.992,3.974-2.582l2.155,1.221
		c-1.248,2.299-3.574,3.631-6.156,3.631c-4.058,0-6.525-3.063-6.525-6.979c0-4.084,2.185-7.148,6.469-7.148
		c4.229,0,6.214,3.12,6.214,7.065v0.396L155.425,25.18L155.425,25.18z M163.001,23.251c-0.313-1.985-1.618-3.32-3.661-3.32
		c-1.986,0-3.461,1.418-3.772,3.32H163.001z"/>
	<path fill="#C6A25B" d="M169.272,25.18c0.028,2.271,1.562,4.398,4.001,4.398c1.958,0,3.008-0.992,3.974-2.582l2.156,1.221
		c-1.25,2.299-3.575,3.631-6.157,3.631c-4.059,0-6.526-3.063-6.526-6.979c0-4.084,2.185-7.148,6.471-7.148
		c4.228,0,6.214,3.12,6.214,7.065v0.396L169.272,25.18L169.272,25.18z M176.848,23.251c-0.313-1.985-1.617-3.32-3.659-3.32
		c-1.986,0-3.463,1.418-3.773,3.32H176.848z"/>
	<path fill="#C6A25B" d="M183.942,20.329h0.058c1.05-1.588,2.639-2.609,4.625-2.609c3.83,0,6.242,3.319,6.242,6.951
		c0,3.802-2.271,7.177-6.356,7.177c-1.872,0-3.489-1.021-4.511-2.525h-0.058v9.677h-2.554V18.116h2.554V20.329z M192.312,24.754
		c0-2.582-1.561-4.768-4.313-4.768c-2.639,0-4.198,2.3-4.198,4.768c0,2.498,1.503,4.824,4.198,4.824
		C190.78,29.578,192.312,27.365,192.312,24.754z"/>
	<path fill="#C6A25B" d="M198.895,25.18c0.028,2.271,1.562,4.398,4,4.398c1.959,0,3.008-0.992,3.974-2.582l2.155,1.221
		c-1.248,2.299-3.573,3.631-6.155,3.631c-4.059,0-6.526-3.063-6.526-6.979c0-4.084,2.186-7.148,6.469-7.148
		c4.229,0,6.214,3.12,6.214,7.065v0.396L198.895,25.18L198.895,25.18z M206.471,23.251c-0.313-1.985-1.617-3.32-3.661-3.32
		c-1.985,0-3.461,1.418-3.771,3.32H206.471z"/>
	<path fill="#C6A25B" d="M213.933,20.271h0.085c0.625-1.56,1.93-2.552,3.632-2.552c0.738,0,1.478,0.254,2.102,0.652l-1.163,2.326
		c-0.455-0.396-0.966-0.539-1.562-0.539c-2.752,0-3.094,2.555-3.094,4.709v6.526h-2.553V18.116h2.553V20.271L213.933,20.271z"/>
	<path fill="#44443D" d="M134.413,17.53l5.361-9.809h7.065l-7.293,11.283l7.746,12.39h-7.235l-5.646-10.49v10.49h-5.164V7.844h5.164
		L134.413,17.53L134.413,17.53z"/>
	<polygon fill="#C6A25B" points="140.519,19.012 147.753,7.721 152.196,7.721 144.903,19.004 152.649,31.395 148.037,31.395 	"/>
	<g>
		<path fill="#44443D" d="M31.353,23.606"/>
		<path fill="#44443D" d="M31.353,35.244"/>
		<path fill="#44443D" d="M31.353,35.244c0,0-9.643-20.813-30.6-10.582c8.553-11.316,9.614-12.729,9.614-12.729
			S28.826,7.93,31.353,23.605"/>
	</g>
	<g>
		<path fill="#44443D" d="M31.377,23.606"/>
		<path fill="#44443D" d="M31.377,35.244"/>
		<path fill="#44443D" d="M31.377,35.244c0,0,9.643-20.813,30.6-10.582c-8.253-10.712-9.615-12.729-9.615-12.729
			S33.904,7.931,31.377,23.606"/>
	</g>
	<path fill="#C6A25B" d="M31.24,0.445C19.69,0.537,10.335,1.609,10.345,2.839c0.01,1.229,9.381,2.152,20.932,2.06
		c11.551-0.092,20.905-1.164,20.896-2.393C52.163,1.275,42.792,0.353,31.24,0.445z M31.269,3.903
		c-9.888,0.079-15.868-0.408-15.873-1.088c-0.005-0.679,5.966-1.296,15.854-1.375s16.159,0.409,16.164,1.089
		C47.418,3.209,41.156,3.823,31.269,3.903z"/>
</g>
</svg>
