<?xml version="1.0" encoding="utf-8"?>
<!-- Generator: Adobe Illustrator 15.0.0, SVG Export Plug-In . SVG Version: 6.00 Build 0)  -->
<!DOCTYPE svg PUBLIC "-//W3C//DTD SVG 1.1//EN" "http://www.w3.org/Graphics/SVG/1.1/DTD/svg11.dtd">
<svg version="1.1" id="Calque_1" xmlns="http://www.w3.org/2000/svg" xmlns:xlink="http://www.w3.org/1999/xlink" x="0px" y="0px"
	 width="171.092px" height="28.346px" viewBox="0 0 171.092 28.346" enable-background="new 0 0 171.092 28.346"
	 xml:space="preserve">
<g>
	<g>
		<g>
			<path d="M47.695,19.029c0.531,0.217,1.072,0.459,1.623,0.728c-6.595-8.559-7.682-10.171-7.682-10.171s-14.763-3.199-16.781,9.329
				C22.835,6.386,8.073,9.585,8.073,9.585s-0.847,1.129-7.682,10.171c0.546-0.267,1.082-0.506,1.61-0.723
				C1.507,19.69,0.977,20.39,0.4,21.154c15.609-7.62,23.459,5.26,24.442,7.024c0,0,0.129-0.253,0.386-0.672l0,0l0,0
				c1.753-2.85,9.502-13.478,24.099-6.353C48.74,20.39,48.198,19.688,47.695,19.029z"/>
			<path d="M24.784,3.962c9.229-0.073,16.706-0.93,16.7-1.912c-0.009-0.983-7.498-1.72-16.729-1.647
				C15.525,0.478,8.05,1.333,8.056,2.317C8.063,3.3,15.554,4.036,24.784,3.962z M24.761,1.2c7.901-0.064,12.914,0.326,12.918,0.868
				c0.003,0.543-5,1.036-12.902,1.099c-7.901,0.062-12.681-0.326-12.685-0.87C12.087,1.754,16.86,1.261,24.761,1.2z"/>
		</g>
	</g>
	<g>
		<path d="M59.96,21.947V5.805h5.995c2.869,0,4.794,1.113,4.794,4.198c0,1.455-0.471,2.632-1.776,3.295v0.042
			c2.311,0.3,3.296,1.863,3.296,4.11c0,3.385-2.89,4.496-5.844,4.496H59.96z M64.156,12.142h0.471c1.113,0,2.27-0.192,2.27-1.561
			c0-1.479-1.306-1.563-2.44-1.563h-0.3V12.142z M64.156,18.735h0.536c1.242,0,3.339,0.066,3.339-1.713
			c0-1.947-2.076-1.753-3.447-1.753h-0.428V18.735z"/>
		<path d="M86.784,16.465c0,3.726-3.083,5.845-6.615,5.845c-3.511,0-6.613-2.098-6.613-5.845c0-3.746,3.082-5.865,6.613-5.865
			S86.784,12.72,86.784,16.465z M77.665,16.465c0,1.394,0.921,2.463,2.504,2.463c1.584,0,2.505-1.069,2.505-2.463
			c0-1.348-0.921-2.483-2.505-2.483C78.585,13.982,77.665,15.118,77.665,16.465z"/>
		<path d="M100.955,16.465c0,3.726-3.082,5.845-6.615,5.845c-3.51,0-6.615-2.098-6.615-5.845c0-3.746,3.084-5.865,6.615-5.865
			C97.873,10.601,100.955,12.72,100.955,16.465z M91.835,16.465c0,1.394,0.922,2.463,2.504,2.463c1.585,0,2.506-1.069,2.506-2.463
			c0-1.348-0.921-2.483-2.506-2.483C92.757,13.982,91.835,15.118,91.835,16.465z"/>
		<path d="M121.984,17.257c0.021,1.715,1.178,3.318,3.018,3.318c1.477,0,2.271-0.748,2.998-1.946l1.626,0.921
			c-0.941,1.734-2.697,2.737-4.644,2.737c-3.062,0-4.925-2.31-4.925-5.266c0-3.081,1.647-5.393,4.88-5.393
			c3.191,0,4.688,2.353,4.688,5.33v0.298H121.984z M127.701,15.803c-0.237-1.498-1.223-2.505-2.764-2.505
			c-1.498,0-2.611,1.07-2.846,2.505H127.701z"/>
		<path d="M132.431,17.257c0.021,1.715,1.177,3.318,3.019,3.318c1.477,0,2.269-0.748,2.996-1.946l1.628,0.921
			c-0.943,1.734-2.698,2.737-4.646,2.737c-3.061,0-4.924-2.31-4.924-5.266c0-3.081,1.649-5.393,4.882-5.393
			c3.189,0,4.688,2.353,4.688,5.33v0.298H132.431z M138.146,15.803c-0.234-1.498-1.22-2.505-2.761-2.505
			c-1.498,0-2.612,1.07-2.847,2.505H138.146z"/>
		<path d="M143.499,13.598h0.043c0.791-1.198,1.99-1.968,3.489-1.968c2.889,0,4.709,2.504,4.709,5.244
			c0,2.869-1.714,5.414-4.796,5.414c-1.412,0-2.631-0.77-3.402-1.904h-0.043v7.301h-1.927V11.927h1.927V13.598z M149.813,16.938
			c0-1.949-1.178-3.597-3.255-3.597c-1.99,0-3.167,1.734-3.167,3.597c0,1.884,1.135,3.638,3.167,3.638
			C148.658,20.576,149.813,18.908,149.813,16.938z"/>
		<path d="M154.78,17.257c0.021,1.715,1.177,3.318,3.018,3.318c1.479,0,2.27-0.748,2.997-1.946l1.627,0.921
			c-0.941,1.734-2.695,2.737-4.645,2.737c-3.061,0-4.923-2.31-4.923-5.266c0-3.081,1.647-5.393,4.881-5.393
			c3.188,0,4.687,2.353,4.687,5.33v0.298H154.78z M160.496,15.803c-0.236-1.498-1.22-2.505-2.761-2.505
			c-1.5,0-2.612,1.07-2.847,2.505H160.496z"/>
		<path d="M166.125,13.554h0.065c0.47-1.177,1.455-1.925,2.74-1.925c0.556,0,1.112,0.191,1.584,0.491l-0.879,1.757
			c-0.343-0.3-0.728-0.408-1.177-0.408c-2.075,0-2.334,1.928-2.334,3.552v4.925h-1.925v-10.02h1.925V13.554z"/>
		<path d="M106.131,11.486l4.045-7.4h5.331l-5.503,8.513l5.844,9.348h-5.46l-4.257-7.915v7.915h-3.896V4.178h3.896V11.486z"/>
		<polygon points="110.739,12.604 116.197,4.086 119.548,4.086 114.044,12.599 119.889,21.947 116.409,21.947 		"/>
	</g>
</g>
</svg>
