<?xml version="1.0" encoding="utf-8"?>
<!-- Generator: Adobe Illustrator 15.0.0, SVG Export Plug-In . SVG Version: 6.00 Build 0)  -->
<!DOCTYPE svg PUBLIC "-//W3C//DTD SVG 1.1//EN" "http://www.w3.org/Graphics/SVG/1.1/DTD/svg11.dtd">
<svg version="1.1" id="Calque_1" xmlns="http://www.w3.org/2000/svg" xmlns:xlink="http://www.w3.org/1999/xlink" x="0px" y="0px"
	 width="34.875px" height="34.525px" viewBox="270.874 397.373 34.875 34.525"
	 enable-background="new 270.874 397.373 34.875 34.525" xml:space="preserve">
<g>
	<path fill="#BC9B5F" d="M305.67,412.815c0,0.845-0.685,1.529-1.529,1.529h-13.773c-0.844,0-1.528-0.685-1.528-1.529v-13.773
		c0-0.845,0.686-1.529,1.528-1.529h13.773c0.846,0,1.529,0.685,1.529,1.529V412.815z"/>
	<path fill="#BC9B5F" d="M305.67,412.95l-5.179,17.334c-0.266,0.857-0.686,1.529-1.53,1.529h-5.033
		c-0.844,0-1.835-0.703-1.527-1.529l5.178-17.334"/>
</g>
<g>
	<path fill="#BC9B5F" d="M287.795,412.815c0,0.845-0.685,1.529-1.529,1.529h-13.773c-0.844,0-1.528-0.685-1.528-1.529v-13.773
		c0-0.845,0.686-1.529,1.528-1.529h13.773c0.846,0,1.529,0.685,1.529,1.529V412.815z"/>
	<path fill="#BC9B5F" d="M287.795,412.95l-5.179,17.334c-0.266,0.857-0.686,1.529-1.53,1.529h-5.033
		c-0.844,0-1.835-0.703-1.527-1.529l5.178-17.334"/>
</g>
</svg>
