<?xml version="1.0" encoding="utf-8"?>
<!-- Generator: Adobe Illustrator 15.0.0, SVG Export Plug-In . SVG Version: 6.00 Build 0)  -->
<!DOCTYPE svg PUBLIC "-//W3C//DTD SVG 1.1//EN" "http://www.w3.org/Graphics/SVG/1.1/DTD/svg11.dtd">
<svg version="1.1" id="Calque_1" xmlns="http://www.w3.org/2000/svg" xmlns:xlink="http://www.w3.org/1999/xlink" x="0px" y="0px"
	 width="53.346px" height="63.473px" viewBox="271.223 389.503 53.346 63.473"
	 enable-background="new 271.223 389.503 53.346 63.473" xml:space="preserve">
<g>
	<path fill="#BC9B5F" d="M295.772,389.903c12.395-1.711,22.075,11.132,16.485,22.504c-2.771,5.639-11.685,11.161-20.41,7.589
		C277.97,414.315,279.624,392.133,295.772,389.903z"/>
	<path fill="#BC9B5F" d="M283.212,418.687C283.274,418.681,282.964,418.687,283.212,418.687c2.709,0.007,5.581,2.842,7.589,3.664
		c4.175,1.709,9.884,1.719,14.13,0c1.211-0.49,4.712-3.731,6.804-3.926c2.779-0.258,6.522,2.095,8.374,4.711
		c4.664,6.59,6.633,25.484-1.832,28.783c-4.522,1.764-14.05,0.523-20.147,0.523c-6.074,0-14.669,1.416-20.149-0.523
		c-9.099-3.219-7.313-23.824-0.785-30.354C278.592,420.168,280.96,418.908,283.212,418.687z"/>
</g>
</svg>
