<?xml version="1.0" encoding="utf-8"?>
<!-- Generator: Adobe Illustrator 15.0.0, SVG Export Plug-In . SVG Version: 6.00 Build 0)  -->
<!DOCTYPE svg PUBLIC "-//W3C//DTD SVG 1.1//EN" "http://www.w3.org/Graphics/SVG/1.1/DTD/svg11.dtd">
<svg version="1.1" id="Calque_1" xmlns="http://www.w3.org/2000/svg" xmlns:xlink="http://www.w3.org/1999/xlink" x="0px" y="0px"
	 width="63.406px" height="32.103px" viewBox="266.276 408.653 63.406 32.103"
	 enable-background="new 266.276 408.653 63.406 32.103" xml:space="preserve">
<g>
	<path fill="#FFFFFF" d="M311.46,422.92c-3.942-4.31-10.635-4.607-14.944-0.664c-4.311,3.943-4.607,10.635-0.666,14.945
		c3.943,4.311,10.636,4.609,14.945,0.666C315.106,433.922,315.403,427.231,311.46,422.92z M307.799,434.59
		c-2.501,2.289-6.384,2.117-8.671-0.385c-2.291-2.502-2.118-6.385,0.385-8.674c2.501-2.287,6.384-2.115,8.672,0.387
		C310.475,428.418,310.301,432.301,307.799,434.59z"/>
	<path fill="#FFFFFF" d="M295.158,430.368c0,0.711-0.577,1.287-1.287,1.287h-7.077c-0.711,0-1.285-0.576-1.285-1.287v-1.717
		c0-0.711,0.574-1.285,1.285-1.285h7.077c0.71,0,1.287,0.574,1.287,1.285V430.368z"/>
	<path fill="#FFFFFF" d="M286.032,409.031c0.509,0.465,0.421,1.389-0.196,2.065l-17.088,18.698c-0.617,0.676-1.53,0.846-2.038,0.381
		l0,0c-0.51-0.465-0.423-1.389,0.197-2.064l17.086-18.698C284.61,408.738,285.522,408.566,286.032,409.031L286.032,409.031z"/>
	<path fill="#FFFFFF" d="M329.24,412.494c0.51,0.464,0.479,1.327-0.069,1.926l-15.154,16.583c-0.546,0.598-1.403,0.707-1.91,0.242
		l0,0c-0.511-0.467-0.479-1.328,0.069-1.928l15.152-16.581C327.877,412.138,328.731,412.029,329.24,412.494L329.24,412.494z"/>
	<path fill="#FFFFFF" d="M284.739,422.28c-3.942-4.31-10.636-4.607-14.945-0.664c-4.312,3.943-4.608,10.635-0.665,14.945
		c3.945,4.311,10.636,4.607,14.946,0.664C288.384,433.282,288.682,426.592,284.739,422.28z M281.076,433.95
		c-2.501,2.289-6.385,2.115-8.673-0.387c-2.288-2.5-2.115-6.383,0.387-8.672c2.501-2.289,6.384-2.115,8.673,0.387
		C283.751,427.78,283.577,431.663,281.076,433.95z"/>
</g>
</svg>
