<?xml version="1.0" encoding="utf-8"?>
<!-- Generator: Adobe Illustrator 15.0.0, SVG Export Plug-In . SVG Version: 6.00 Build 0)  -->
<!DOCTYPE svg PUBLIC "-//W3C//DTD SVG 1.1//EN" "http://www.w3.org/Graphics/SVG/1.1/DTD/svg11.dtd">
<svg version="1.1" id="Calque_1" xmlns="http://www.w3.org/2000/svg" xmlns:xlink="http://www.w3.org/1999/xlink" x="0px" y="0px"
	 width="74.387px" height="35.227px" viewBox="0 0 74.387 35.227" enable-background="new 0 0 74.387 35.227" xml:space="preserve">
<g>
	<path fill="#BC9B5F" d="M73.738,5.481c0,2.777-2.252,5.029-5.029,5.029H22.188c-2.776,0-5.028-2.252-5.028-5.029l0,0
		c0-2.777,2.252-5.029,5.028-5.029h46.521C71.486,0.451,73.738,2.703,73.738,5.481L73.738,5.481z"/>
	<path fill="#BC9B5F" d="M73.738,17.614c0,2.776-2.252,5.028-5.029,5.028H22.188c-2.776,0-5.028-2.252-5.028-5.028l0,0
		c0-2.778,2.252-5.029,5.028-5.029h46.521C71.486,12.584,73.738,14.835,73.738,17.614L73.738,17.614z"/>
	<path fill="#BC9B5F" d="M73.738,29.746c0,2.776-2.252,5.028-5.029,5.028H22.188c-2.776,0-5.028-2.252-5.028-5.028l0,0
		c0-2.777,2.252-5.029,5.028-5.029h46.521C71.486,24.717,73.738,26.969,73.738,29.746L73.738,29.746z"/>
	<path fill="#BC9B5F" d="M15.405,5.481c0,2.777-2.252,5.029-5.028,5.029H5.676c-2.776,0-5.028-2.252-5.028-5.029l0,0
		c0-2.776,2.252-5.029,5.028-5.029h4.701C13.153,0.451,15.405,2.704,15.405,5.481L15.405,5.481z"/>
	<path fill="#BC9B5F" d="M15.405,17.614c0,2.776-2.252,5.028-5.028,5.028H5.676c-2.776,0-5.028-2.252-5.028-5.028l0,0
		c0-2.777,2.252-5.029,5.028-5.029h4.701C13.153,12.584,15.405,14.836,15.405,17.614L15.405,17.614z"/>
	<path fill="#BC9B5F" d="M15.405,29.746c0,2.776-2.252,5.028-5.028,5.028H5.676c-2.776,0-5.028-2.252-5.028-5.028l0,0
		c0-2.777,2.252-5.029,5.028-5.029h4.701C13.153,24.717,15.405,26.969,15.405,29.746L15.405,29.746z"/>
</g>
</svg>
