<?xml version="1.0" encoding="utf-8"?>
<!-- Generator: Adobe Illustrator 15.0.0, SVG Export Plug-In . SVG Version: 6.00 Build 0)  -->
<!DOCTYPE svg PUBLIC "-//W3C//DTD SVG 1.1//EN" "http://www.w3.org/Graphics/SVG/1.1/DTD/svg11.dtd">
<svg version="1.1" id="Calque_1" xmlns="http://www.w3.org/2000/svg" xmlns:xlink="http://www.w3.org/1999/xlink" x="0px" y="0px"
	 width="28.346px" height="28.347px" viewBox="0 0 28.346 28.347" enable-background="new 0 0 28.346 28.347" xml:space="preserve">
<path fill="#95C11F" d="M14.172,0.155c-7.749,0-14.031,6.283-14.031,14.031c0,7.75,6.283,14.032,14.031,14.032
	c7.75,0,14.032-6.282,14.032-14.032C28.205,6.438,21.922,0.155,14.172,0.155z M20.803,15.929h-4.892v4.891
	c0,0.961-0.779,1.739-1.74,1.739s-1.74-0.778-1.74-1.739v-4.891H7.54c-0.96,0-1.739-0.779-1.739-1.739
	c0-0.962,0.779-1.741,1.739-1.741h4.891V7.556c0-0.961,0.779-1.74,1.74-1.74s1.74,0.779,1.74,1.74v4.892h4.892
	c0.961,0,1.74,0.779,1.74,1.741C22.543,15.149,21.764,15.929,20.803,15.929z"/>
</svg>
