<?xml version="1.0" encoding="utf-8"?>
<!-- Generator: Adobe Illustrator 15.0.0, SVG Export Plug-In . SVG Version: 6.00 Build 0)  -->
<!DOCTYPE svg PUBLIC "-//W3C//DTD SVG 1.1//EN" "http://www.w3.org/Graphics/SVG/1.1/DTD/svg11.dtd">
<svg version="1.1" id="Calque_1" xmlns="http://www.w3.org/2000/svg" xmlns:xlink="http://www.w3.org/1999/xlink" x="0px" y="0px"
	 width="62.54px" height="39.438px" viewBox="0 0 62.54 39.438" enable-background="new 0 0 62.54 39.438" xml:space="preserve">
<g>
	<g>
		<path fill="#D4D4D4" d="M31.365,25.355"/>
		<path fill="#D4D4D4" d="M31.365,35.244"/>
		<path fill="#D4D4D4" d="M31.365,35.244c0,0-9.643-19.063-30.601-8.833c8.554-11.315,9.615-12.728,9.615-12.728
			S28.837,9.68,31.365,25.355"/>
	</g>
	<g>
		<path fill="#D4D4D4" d="M31.389,25.355"/>
		<path fill="#D4D4D4" d="M31.389,35.244"/>
		<path fill="#D4D4D4" d="M31.389,35.244c0,0,9.643-19.063,30.6-8.833c-8.253-10.711-9.614-12.728-9.614-12.728
			S33.916,9.68,31.389,25.355"/>
	</g>
	<g>
		<path fill="#FFFFFF" d="M31.353,23.606"/>
		<path fill="#FFFFFF" d="M31.353,35.244"/>
		<path fill="#FFFFFF" d="M31.353,35.244c0,0-9.643-20.812-30.6-10.582c8.553-11.316,9.614-12.729,9.614-12.729
			s18.459-4.003,20.986,11.672"/>
	</g>
	<g>
		<path fill="#FFFFFF" d="M31.377,23.606"/>
		<path fill="#FFFFFF" d="M31.377,35.244"/>
		<path fill="#FFFFFF" d="M31.377,35.244c0,0,9.643-20.812,30.6-10.582c-8.253-10.712-9.615-12.729-9.615-12.729
			S33.904,7.931,31.377,23.606"/>
	</g>
	<path fill="#C6A25B" d="M31.24,0.445C19.69,0.537,10.335,1.609,10.345,2.839s9.381,2.152,20.932,2.06
		c11.55-0.092,20.905-1.164,20.896-2.393C52.163,1.275,42.792,0.353,31.24,0.445z M31.269,3.903
		c-9.888,0.079-15.868-0.409-15.873-1.088s5.966-1.296,15.853-1.375c9.888-0.079,16.159,0.409,16.164,1.089
		C47.418,3.209,41.156,3.824,31.269,3.903z"/>
</g>
</svg>
