<?xml version="1.0" encoding="utf-8"?>
<!-- Generator: Adobe Illustrator 15.0.0, SVG Export Plug-In . SVG Version: 6.00 Build 0)  -->
<!DOCTYPE svg PUBLIC "-//W3C//DTD SVG 1.1//EN" "http://www.w3.org/Graphics/SVG/1.1/DTD/svg11.dtd">
<svg version="1.1" id="Calque_1" xmlns="http://www.w3.org/2000/svg" xmlns:xlink="http://www.w3.org/1999/xlink" x="0px" y="0px"
	 width="44.333px" height="50.375px" viewBox="276.056 395.361 44.333 50.375"
	 enable-background="new 276.056 395.361 44.333 50.375" xml:space="preserve">
<g>
	<path fill="#FFFFFF" d="M317.563,412.253c0.515,0,0.933,0.484,0.933,1.084v31.571c0,0.6-0.418,1.084-0.933,1.084h-6.651
		c-0.515,0-0.933-0.484-0.933-1.084v-31.571c0-0.6,0.418-1.084,0.933-1.084H317.563L317.563,412.253z"/>
	<path fill="#BC9B5F" d="M308.816,411.333c0.601,0,1.086,0.486,1.086,1.087v31.664c0,0.6-0.485,1.086-1.086,1.086h-8.643
		c-0.602,0-1.087-0.486-1.087-1.086V412.42c0-0.601,0.485-1.087,1.087-1.087H308.816z"/>
	<path fill="#FFFFFF" d="M307.742,412.253c0.516,0,0.934,0.484,0.934,1.084v31.571c0,0.6-0.418,1.084-0.934,1.084h-6.649
		c-0.517,0-0.934-0.484-0.934-1.084v-31.571c0-0.6,0.417-1.084,0.934-1.084H307.742L307.742,412.253z"/>
	<path fill="#FFFFFF" d="M298.001,412.253c0.515,0,0.932,0.484,0.932,1.084v31.571c0,0.6-0.417,1.084-0.932,1.084h-6.651
		c-0.515,0-0.933-0.484-0.933-1.084v-31.571c0-0.6,0.418-1.084,0.933-1.084H298.001L298.001,412.253z"/>
	<path fill="#BC9B5F" d="M319.357,411.627h0.03l-12.701-15.473h-0.014c-0.151-0.213-0.379-0.371-0.642-0.432v-0.011h-0.06
		c-0.063-0.011-0.122-0.019-0.188-0.019h-8.643c-0.063,0-0.126,0.008-0.186,0.019l-19.265-0.019
		c-1.089,0.024-1.167,0.514-1.167,1.126v32.271c0,0.104,0.04,0.396,0.117,0.49l0,0l12.933,15.18v-0.016
		c0.198,0.256,0.506,0.424,0.855,0.424h8.644c0.601,0,1.087-0.486,1.087-1.086v-9.859l8.977,10.537v-0.055
		c0.188,0.322,0.534,0.541,0.934,0.541h8.644c0.6,0,1.086-0.488,1.086-1.088v-31.664
		C319.798,412.14,319.623,411.825,319.357,411.627z"/>
	<path fill="#FFFFFF" d="M317.563,412.253c0.515,0,0.933,0.484,0.933,1.084v31.571c0,0.6-0.418,1.084-0.933,1.084h-6.651
		c-0.515,0-0.933-0.484-0.933-1.084v-31.571c0-0.6,0.418-1.084,0.933-1.084H317.563L317.563,412.253z"/>
	<path fill="#FFFFFF" d="M307.742,412.253c0.516,0,0.934,0.484,0.934,1.084v31.571c0,0.6-0.418,1.084-0.934,1.084h-6.649
		c-0.517,0-0.934-0.484-0.934-1.084v-31.571c0-0.6,0.417-1.084,0.934-1.084H307.742L307.742,412.253z"/>
	<path fill="#FFFFFF" d="M298.001,412.253c0.515,0,0.932,0.484,0.932,1.084v31.571c0,0.6-0.417,1.084-0.932,1.084h-6.651
		c-0.515,0-0.933-0.484-0.933-1.084v-31.571c0-0.6,0.418-1.084,0.933-1.084H298.001L298.001,412.253z"/>
</g>
</svg>
