<?xml version="1.0" encoding="utf-8"?>
<!-- Generator: Adobe Illustrator 15.0.0, SVG Export Plug-In . SVG Version: 6.00 Build 0)  -->
<!DOCTYPE svg PUBLIC "-//W3C//DTD SVG 1.1//EN" "http://www.w3.org/Graphics/SVG/1.1/DTD/svg11.dtd">
<svg version="1.1" id="Calque_1" xmlns="http://www.w3.org/2000/svg" xmlns:xlink="http://www.w3.org/1999/xlink" x="0px" y="0px"
	 width="105.34px" height="124.16px" viewBox="0 0 105.34 124.16" enable-background="new 0 0 105.34 124.16" xml:space="preserve">
<g>
	<polygon fill="#515050" points="52.67,110.16 29.91,124.16 29.91,91.95 52.67,91.95 	"/>
	<polygon fill="#404040" points="75.43,124.16 52.67,110.16 52.67,91.95 75.43,91.95 	"/>
</g>
<g>
	<polygon fill="#3F923E" points="52.67,0.23 52.43,0 43.76,8.75 32.36,4.08 27.66,15.55 15.25,15.61 15.31,27.93 3.94,32.68 
		8.73,44.13 0,52.94 8.75,61.61 4.08,73.01 15.55,77.72 15.61,90.12 27.93,90.06 32.68,101.42 44.13,96.64 52.67,105.1 	"/>
	<polygon fill="#3B8739" points="52.67,104.87 52.9,105.1 61.57,96.35 72.97,101.03 77.68,89.55 90.08,89.49 90.03,77.17 
		101.39,72.42 96.61,60.98 105.34,52.16 96.58,43.49 101.26,32.1 89.78,27.39 89.72,14.98 77.4,15.04 72.65,3.68 61.21,8.46 
		52.67,0 	"/>
</g>
<g>
	<polygon fill="none" stroke="#296429" stroke-miterlimit="10" points="52.84,101.94 61.04,93.71 71.75,98.11 76.18,87.32 
		87.83,87.27 87.78,75.69 98.46,71.22 93.96,60.47 102.17,52.19 93.94,44.04 98.34,33.33 87.55,28.9 87.5,17.25 75.92,17.3 
		71.45,6.62 60.7,11.12 52.62,3.17 52.62,3.17 44.43,11.39 33.71,7 29.29,17.78 17.63,17.83 17.69,29.42 7.01,33.88 11.5,44.63 
		3.3,52.92 11.53,61.06 7.13,71.77 17.92,76.2 17.97,87.85 29.55,87.8 34.02,98.48 44.77,93.99 52.84,101.94 	"/>
</g>
<g>
	<path fill="none" stroke="#FFFFFF" stroke-linecap="round" stroke-miterlimit="10" stroke-dasharray="0,5.9447" d="M90.52,51.52
		c0,20.91-16.95,37.86-37.86,37.86c-20.91,0-37.85-16.95-37.85-37.86c0-20.91,16.94-37.85,37.85-37.85
		C73.57,13.67,90.52,30.61,90.52,51.52z"/>
</g>
<g>
	<path fill="#FFFFFF" d="M28.16,65.91v-30.7h7.09v24.47h14.87v6.23H28.16z"/>
	<path fill="#FFFFFF" d="M64.74,59.86c1.21,0,2.23-0.25,3.07-0.76c0.84-0.5,1.51-1.17,2.03-2.01s0.89-1.79,1.1-2.88
		s0.32-2.18,0.32-3.31v-15.7h7.09v15.7c0,2.13-0.27,4.12-0.8,5.97c-0.53,1.85-1.35,3.46-2.46,4.84c-1.11,1.38-2.52,2.47-4.24,3.26
		c-1.71,0.79-3.75,1.19-6.12,1.19c-2.45,0-4.54-0.42-6.27-1.25s-3.13-1.95-4.22-3.35c-1.08-1.4-1.87-3.02-2.38-4.86
		c-0.5-1.84-0.76-3.78-0.76-5.79v-15.7h7.09v15.7c0,1.18,0.12,2.31,0.35,3.37c0.23,1.07,0.61,2.02,1.12,2.85s1.19,1.5,2.01,1.99
		C62.51,59.61,63.53,59.86,64.74,59.86z"/>
</g>
</svg>
