<?xml version="1.0" encoding="utf-8"?>
<!-- Generator: Adobe Illustrator 15.0.0, SVG Export Plug-In . SVG Version: 6.00 Build 0)  -->
<!DOCTYPE svg PUBLIC "-//W3C//DTD SVG 1.1//EN" "http://www.w3.org/Graphics/SVG/1.1/DTD/svg11.dtd">
<svg version="1.1" id="Calque_1" xmlns="http://www.w3.org/2000/svg" xmlns:xlink="http://www.w3.org/1999/xlink" x="0px" y="0px"
	 width="105.34px" height="124.16px" viewBox="0 0 105.34 124.16" enable-background="new 0 0 105.34 124.16" xml:space="preserve">
<g>
	<g>
		<polygon fill="#515050" points="52.67,110.16 29.91,124.16 29.91,91.95 52.67,91.95 		"/>
		<polygon fill="#404040" points="75.43,124.16 52.67,110.16 52.67,91.95 75.43,91.95 		"/>
	</g>
	<g>
		<g>
			<polyline fill="#D9544F" points="52.55,0 43.76,8.75 32.36,4.08 27.66,15.55 15.25,15.61 15.31,27.93 3.94,32.68 8.73,44.13 
				0,52.94 8.75,61.61 4.08,73.01 15.55,77.72 15.61,90.12 27.93,90.06 32.68,101.42 44.13,96.64 52.79,105.1 			"/>
			<polyline fill="#C94E49" points="52.79,105.1 61.57,96.35 72.97,101.03 77.68,89.55 90.08,89.49 90.03,77.17 101.39,72.42 
				96.61,60.98 105.34,52.16 96.58,43.49 101.26,32.1 89.78,27.39 89.72,14.98 77.4,15.04 72.65,3.68 61.21,8.46 52.55,0 			"/>
		</g>
		<g>
			<polygon fill="none" stroke="#86352F" stroke-miterlimit="10" points="52.84,101.94 61.04,93.71 71.75,98.11 76.18,87.32 
				87.83,87.27 87.78,75.69 98.46,71.22 93.96,60.47 102.17,52.19 93.94,44.04 98.34,33.33 87.55,28.9 87.5,17.25 75.92,17.3 
				71.45,6.62 60.7,11.12 52.62,3.17 52.62,3.17 44.43,11.39 33.71,7 29.29,17.78 17.63,17.83 17.69,29.42 7.01,33.88 11.5,44.63 
				3.3,52.92 11.53,61.06 7.13,71.77 17.92,76.2 17.97,87.85 29.55,87.8 34.02,98.48 44.77,93.99 			"/>
		</g>
		<g>
			<path fill="none" stroke="#FFFFFF" stroke-linecap="round" stroke-miterlimit="10" stroke-dasharray="0,5.9447" d="M90.52,51.52
				c0,20.91-16.95,37.86-37.86,37.86S14.81,72.43,14.81,51.52c0-20.91,16.94-37.85,37.85-37.85S90.52,30.61,90.52,51.52z"/>
		</g>
	</g>
</g>
<g>
	<g enable-background="new    ">
		<path fill="#FFFFFF" d="M29.15,72.9V43.91h6.7v23.11h14.05v5.88H29.15z"/>
		<path fill="#FFFFFF" d="M63.69,67.18c1.14,0,2.11-0.24,2.9-0.71c0.79-0.48,1.43-1.11,1.92-1.9c0.49-0.79,0.84-1.69,1.04-2.71
			c0.21-1.02,0.31-2.06,0.31-3.12V43.91h6.7v14.82c0,2.02-0.25,3.89-0.76,5.63c-0.5,1.74-1.28,3.27-2.33,4.57s-2.38,2.33-4,3.08
			c-1.62,0.75-3.55,1.12-5.78,1.12c-2.31,0-4.29-0.39-5.92-1.18c-1.63-0.79-2.96-1.84-3.98-3.16c-1.02-1.32-1.77-2.85-2.25-4.59
			c-0.48-1.74-0.71-3.57-0.71-5.47V43.91h6.7v14.82c0,1.12,0.11,2.18,0.33,3.19c0.22,1.01,0.57,1.91,1.06,2.69
			c0.49,0.79,1.12,1.42,1.9,1.88S62.55,67.18,63.69,67.18z"/>
	</g>
	<g enable-background="new    ">
		<path fill="#FFFFFF" d="M38.16,30.94v6.5h-2.62V26.07h2.05l5.3,6.67v-6.67h2.62v11.36h-2.11L38.16,30.94z"/>
		<path fill="#FFFFFF" d="M52.65,37.53c-0.84,0-1.61-0.17-2.3-0.5c-0.69-0.33-1.29-0.76-1.78-1.3c-0.49-0.54-0.87-1.15-1.14-1.85
			s-0.41-1.41-0.41-2.14c0-0.75,0.14-1.47,0.42-2.16c0.28-0.69,0.68-1.3,1.18-1.83c0.51-0.53,1.11-0.95,1.8-1.26
			s1.45-0.47,2.27-0.47c0.84,0,1.61,0.17,2.3,0.5c0.69,0.33,1.29,0.77,1.78,1.31s0.87,1.16,1.14,1.86c0.27,0.69,0.4,1.4,0.4,2.11
			c0,0.75-0.14,1.47-0.42,2.16s-0.67,1.3-1.18,1.83c-0.5,0.53-1.1,0.95-1.79,1.27C54.23,37.37,53.47,37.53,52.65,37.53z
			 M49.69,31.77c0,0.44,0.06,0.86,0.19,1.27c0.13,0.41,0.32,0.78,0.57,1.1s0.56,0.58,0.94,0.77c0.37,0.19,0.8,0.29,1.28,0.29
			c0.5,0,0.94-0.1,1.31-0.3c0.37-0.2,0.68-0.47,0.93-0.79s0.43-0.69,0.55-1.1c0.12-0.41,0.18-0.83,0.18-1.26
			c0-0.44-0.06-0.86-0.19-1.27c-0.13-0.41-0.32-0.77-0.58-1.09s-0.57-0.57-0.94-0.75s-0.79-0.28-1.27-0.28c-0.5,0-0.94,0.1-1.3,0.3
			c-0.37,0.2-0.68,0.46-0.93,0.78c-0.25,0.32-0.44,0.69-0.56,1.1C49.75,30.92,49.69,31.34,49.69,31.77z"/>
		<path fill="#FFFFFF" d="M62.46,30.94v6.5h-2.62V26.07h2.05l5.3,6.67v-6.67h2.62v11.36h-2.11L62.46,30.94z"/>
	</g>
</g>
</svg>
